<svg xmlns="http://www.w3.org/2000/svg" viewBox="0 0 480 480" style="enable-background:new 0 0 480 480;"><path d="M285.966 273.369c36.162-25.386 44.897-75.28 19.5-111.442s-75.28-44.897-111.442-19.5-44.897 75.28-19.5 111.442c5.324 7.584 11.926 14.186 19.5 19.5-42.717 7.343-73.96 44.35-74.034 87.694V472a8 8 0 0 0 7.996 8H352a8 8 0 0 0 8-7.996V361.062c-.075-43.343-31.317-80.35-74.034-87.693zM176 208c0-35.346 28.654-64 64-64s64 28.654 64 64-28.654 64-64 64c-35.33-.04-63.96-28.67-64-64zm168 256H136V361.062c.045-40.332 32.73-73.017 73.063-73.062h61.875c40.332.045 73.017 32.73 73.062 73.062V464zM232 48h16v32h-16zm79.03 42.33l22.627-22.627 11.314 11.313-22.627 22.627zM408 464h32v16h-32zm0-80h32v16h-32zm0-80h32v16h-32zm-9.69-74.543l30.355-10.125 5.062 15.178-30.355 10.125zm-24.855-82.96l30.355-10.125 5.062 15.178-30.355 10.125zm-238.42-67.463l11.315-11.312 22.624 22.63-11.315 11.312zM40 464h32v16H40zm0-80h32v16H40zm0-80h32v16H40zm6.29-69.483l5.058-15.18 30.358 10.115-5.058 15.179zm24.815-82.91l5.06-15.18 30.358 10.122-5.06 15.179zM472 32a24.03 24.03 0 0 1-24-24 8 8 0 1 0-16 0 24.03 24.03 0 0 1-24 24 8 8 0 0 0 0 16 24.03 24.03 0 0 1 24 24c0 4.418 3.582 8 8 8a8 8 0 0 0 8-8 24.03 24.03 0 0 1 24-24 8 8 0 0 0 0-16zm-32 16.023c-2.283-3.04-4.984-5.74-8.023-8.023A40.34 40.34 0 0 0 440 31.977 40.34 40.34 0 0 0 448.023 40c-3.04 2.283-5.74 4.984-8.023 8.023zM72 32A24.03 24.03 0 0 1 48 8a8 8 0 1 0-16 0A24.03 24.03 0 0 1 8 32a8 8 0 0 0-8 8 8 8 0 0 0 8 8 24.03 24.03 0 0 1 24 24 8 8 0 1 0 16 0 24.03 24.03 0 0 1 24-24 8 8 0 0 0 0-16zM40 48.023c-2.283-3.04-4.984-5.74-8.023-8.023A40.34 40.34 0 0 0 40 31.977 40.34 40.34 0 0 0 48.023 40c-3.04 2.283-5.74 4.984-8.023 8.023z"/></svg>