<svg xmlns="http://www.w3.org/2000/svg" viewBox="0 0 479.953 479.953" style="enable-background:new 0 0 479.953 479.953;"><path d="M477.643 102.356L381.609 6.322c-1.527-1.55-3.63-2.4-5.804-2.344a7.98 7.98 0 0 0-5.711 2.555l-29.72 32c-2.9 3.122-2.844 7.968.125 11.023l2.253 2.317-11.8 11.8-18.64-4.656c-16.72-4.092-34.358.918-46.43 13.188l-34.004 39.629-39.512-39.512c-11.264-11.328-27.983-15.277-43.125-10.188a8.16 8.16 0 0 0-2.492 1.359l-2.172 1.75-5.266-5.265 10.344-10.344a8 8 0 0 0 .003-11.309L117.655 6.322a8 8 0 0 0-11.309-.003L2.343 110.322a8 8 0 0 0-.003 11.309l32.003 32.003a8 8 0 0 0 11.31.003l3.616-3.616 18.957 18.957-4.656 18.64c-4.084 16.473.716 33.884 12.664 45.938L144 303.273v62.54c.147 14.339 8.193 27.427 20.922 34.03 6.825 3.632 11.087 10.737 11.078 18.469v1.664h-8c-4.416-.003-7.997 3.575-8 7.99v40.009c-.003 4.416 3.575 7.997 7.99 8H320c4.416.003 7.997-3.575 8-7.99v-40.01c.003-4.416-3.575-7.997-7.99-8H312v-8.04l12.68-11.695A48.71 48.71 0 0 0 344 361.525v-93.716c9.473-1.138 18.279-5.458 24.977-12.253l42.289-45.922c9.94-9.87 13.402-24.533 8.922-37.805-1.282-3.858 5.609-16.484 13.819-26.167a7.98 7.98 0 0 0 5.501 2.315h.078c2.106 0 4.128-.83 5.625-2.313l32.367-32c3.14-3.104 3.17-8.167.065-11.308zM40 136.666l-20.687-20.688L112 23.29l20.688 20.687L40 136.666zm104.709 144.382l-57.084-58.726c-8.03-8.082-11.267-19.766-8.54-30.828l5.758-23.03a7.98 7.98 0 0 0-2.102-7.594l-22.16-22.16L128 71.29l10.344 10.344c2.889 2.887 7.488 3.136 10.672.578l6.57-5.29a26.04 26.04 0 0 1 25.469 6.711l44 44-.076.057a28.07 28.07 0 0 0-7.719 12.039 28.13 28.13 0 0 0-16.219-3.258c-14.52 1.894-25.325 14.357-25.14 29v83.664a40.1 40.1 0 0 0-31.291 31.811zM312 459.978H176v-24h136v24zm16-98.453a33.15 33.15 0 0 1-13.547 26.438l-15.867 14.578c-1.65 1.515-2.587 3.652-2.586 5.89v11.547H192v-1.664c.018-13.645-7.506-26.183-19.555-32.586-7.507-3.832-12.29-11.488-12.445-19.914v-77.383a23.96 23.96 0 0 1 16-22.526v50.073h16V165.572c-.245-6.447 4.363-12.062 10.734-13.078a12.06 12.06 0 0 1 9.313 3.039 11.87 11.87 0 0 1 3.953 8.898v119.547h16V148.43a12 12 0 0 1 11.987-12.004 12.39 12.39 0 0 1 1.107.05c6.479 1.08 11.148 6.803 10.906 13.367v134.133h16V172.43a12 12 0 0 1 11.987-12.004 12.39 12.39 0 0 1 1.107.05c6.479 1.08 11.148 6.803 10.906 13.367v110.133h16v-66.073a23.96 23.96 0 0 1 16 22.526v121.095zm77.015-184.633a20.97 20.97 0 0 1-5.289 21.664l-42.29 45.922a26.13 26.13 0 0 1-13.438 7.242v-11.29a40.07 40.07 0 0 0-32-39.195v-27.39c.28-14.87-10.748-27.537-25.516-29.305a28.46 28.46 0 0 0-14.602 2.656 28.81 28.81 0 0 0-25.398-26.656c-.34-.03-.675.035-1.015.019l32.14-37.487a32.66 32.66 0 0 1 30.828-8.539l23.03 5.758a7.99 7.99 0 0 0 7.594-2.102l14.845-14.845 68.93 70.885c-7.384 8.566-22.553 28.473-17.82 42.663zm34.68-48.274l-82.423-84.766 18.89-20.352 84.445 84.445-20.913 20.673z"/></svg>