<svg xmlns="http://www.w3.org/2000/svg" viewBox="0 0 480.059 480.059" style="enable-background:new 0 0 480.059 480.059;"><path d="M480.029 372.006l-.113-145.965c-.04-18.778-15.26-33.987-34.04-34.012-16.526-.02-30.672 11.847-33.523 28.125l-18.875 106.969a30.55 30.55 0 0 0-21.66 5.344l-64.39 45.293c-2.132 1.496-3.4 3.938-3.398 6.543v87.727a8 8 0 0 0 8 8h80a8 8 0 0 0 8-8v-10.12l52.668-33.535c17.78-13.19 27.988-34.24 27.33-56.368zm-36.1 42.976l-56.207 35.785a8.01 8.01 0 0 0-3.703 6.75v6.512h-64v-75.574l60.992-42.902a14.7 14.7 0 0 1 17.273 23.781l-43.066 32.297 9.602 12.797 43.066-32.297c13.562-10.174 16.308-29.415 6.134-42.977a30.6 30.6 0 0 0-2.85-3.285c-.82-.82-1.685-1.594-2.6-2.32l19.52-110.613c1.73-9.81 11.087-16.363 20.898-14.632a18.04 18.04 0 0 1 14.906 17.753l.114 145.957a51.56 51.56 0 0 1-20.089 42.968zM172.63 377.76l-64.39-45.293c-6.288-4.448-14.025-6.356-21.66-5.344l-18.875-106.97c-3.266-18.514-20.922-30.875-39.436-27.61C12 195.413.154 209.532.14 226.04L.029 372.014c-.645 22.192 9.629 43.29 27.496 56.469l52.504 33.426v10.12a8 8 0 0 0 8 8h80a8 8 0 0 0 8-8v-87.727a7.99 7.99 0 0 0-3.399-6.543zm-12.6 86.269h-64v-6.512c-.001-2.735-1.397-5.28-3.703-6.75L36.283 415.09c-13.365-10.2-20.923-26.27-20.254-43.07l.113-145.965c.007-9.963 8.089-18.034 18.05-18.027a18.04 18.04 0 0 1 17.753 14.906l19.519 110.613c-.905.726-1.77 1.5-2.6 2.32-11.988 11.988-11.988 31.424 0 43.412a30.7 30.7 0 0 0 3.285 2.85l43.066 32.297 9.602-12.797-43.066-32.297a14.7 14.7 0 0 1 17.274-23.781l60.992 42.902v75.575zm80-464h-.504l.504 16c9.79-.001 19.559.934 29.172 2.793l3.055-15.703c-10.62-2.057-21.41-3.092-32.227-3.1zm-33.27 3.297a166.71 166.71 0 0 0-31.484 9.641l6.172 14.758c9.177-3.833 18.7-6.75 28.46-8.71l-3.15-15.688zM347.564 275.45c-7.037 7.042-14.744 13.38-23.012 18.926l8.914 13.289a169.44 169.44 0 0 0 25.418-20.902l-11.32-11.313zm-43.766-262.9l-6.078 14.797c9.202 3.784 18.01 8.462 26.3 13.965l8.852-13.328a167.74 167.74 0 0 0-29.075-15.434zm88.23 155.468a153.5 153.5 0 0 1-2.887 29.645l15.695 3.102c2.123-10.786 3.192-21.753 3.19-32.746v-.68l-16 .679zm-33.645-119.23L347.11 60.15a153.36 153.36 0 0 1 19.004 22.953l13.258-8.953c-6.156-9.112-13.185-17.603-20.99-25.352zm-60.066 259.657a151.17 151.17 0 0 1-28.481 8.652l3.117 15.695a167.21 167.21 0 0 0 31.504-9.574l-6.14-14.773zm96.71-205.344l-14.758 6.188c3.845 9.175 6.776 18.707 8.75 28.457l15.68-3.172a167.52 167.52 0 0 0-9.672-31.473zM380.513 226.17c-3.814 9.192-8.52 17.988-14.05 26.262l13.305 8.89c6.11-9.146 11.312-18.868 15.527-29.027l-14.78-6.126zm-140.484 93.859c-9.9.002-19.774-.955-29.488-2.86l-3.086 15.703c10.73 2 21.64 3.157 32.574 3.156h.168l-.168-16zm-126.262-67.344l-13.28 8.93a169.44 169.44 0 0 0 20.938 25.395l11.297-11.328a153.12 153.12 0 0 1-18.954-22.997zm32.527-224.1c-9.12 6.146-17.62 13.167-25.375 20.965l11.344 11.28a152.88 152.88 0 0 1 22.969-18.973l-8.938-13.273zM75.15 135.63c-2.077 10.674-3.122 21.524-3.12 32.398v.336l16-.336a153.48 153.48 0 0 1 2.824-29.336L75.15 135.63zm24.94-60.594c-6.095 9.156-11.276 18.889-15.47 29.059l14.797 6.094a151.45 151.45 0 0 1 13.992-26.285l-13.32-8.868zm-9.113 122.949l-15.688 3.137c2.157 10.789 5.375 21.339 9.606 31.496l14.766-6.156c-3.824-9.184-6.732-18.722-8.684-28.477zm64.793 96.578l-8.883 13.305c9.15 6.104 18.878 11.296 29.043 15.5l6.109-14.79c-9.194-3.8-17.993-8.494-26.27-14.016zm204.258-158.535c0-24.56-15.258-50.895-40.434-55.344-2.432-27.295-25.13-48.32-52.53-48.656a52.57 52.57 0 0 0-27.035 7.457 52.57 52.57 0 0 0-27.035-7.457c-28.278.408-51.65 22.17-54.07 50.348-23.378 7.35-39.18 29.148-38.895 53.652-.01 11.407 3.405 22.554 9.8 32-6.396 9.446-9.8 20.593-9.8 32 0 24.559 15.258 50.895 40.434 55.344 2.432 27.295 25.13 48.319 52.53 48.656a52.57 52.57 0 0 0 27.035-7.457 52.57 52.57 0 0 0 27.035 7.457c28.278-.408 51.65-22.17 54.07-50.348 23.378-7.35 39.18-29.148 38.895-53.652.009-11.407-3.405-22.554-9.8-32a57 57 0 0 0 9.801-32zm-128-32c0 8.837-7.163 16-16 16s-16-7.163-16-16h-16c.02 17.665 14.335 31.98 32 32 5.635-.032 11.158-1.57 16-4.452v151.006c-5.726 3.526-12.31 5.409-19.035 5.446a37.42 37.42 0 0 1-36.361-33.324c16.988-4.706 26.944-22.292 22.237-39.28a31.92 31.92 0 0 0-30.841-23.396v16c8.837 0 16 7.163 16 16s-7.163 16-16 16c-19.14 0-32-20.684-32-40-.017-9.824 3.504-19.325 9.918-26.766a7.99 7.99 0 0 0 0-10.469c-6.414-7.44-9.935-16.942-9.918-26.766-.355-19.183 13.173-35.828 32.023-39.402a8.76 8.76 0 0 0 6.598-8.598c-.423-21.62 16.725-39.51 38.344-40 6.724.036 13.309 1.92 19.035 5.446v50.555zm102.082 69.235c6.414 7.44 9.935 16.942 9.918 26.766.355 19.183-13.173 35.828-32.023 39.402a8.76 8.76 0 0 0-6.598 8.598c.423 21.62-16.725 39.509-38.344 40-6.724-.036-13.31-1.92-19.035-5.446V192.03c0-8.837 7.163-16 16-16s16 7.163 16 16h16c-.02-17.665-14.335-31.98-32-32-5.635.032-11.158 1.569-16 4.452V53.475c5.726-3.526 12.31-5.41 19.035-5.446a37.42 37.42 0 0 1 36.361 33.324c-16.988 4.706-26.944 22.292-22.237 39.28a31.92 31.92 0 0 0 30.841 23.396v-16c-8.837 0-16-7.163-16-16s7.163-16 16-16c19.14 0 32 20.684 32 40 .017 9.824-3.504 19.325-9.918 26.766a7.99 7.99 0 0 0 0 10.469z"/></svg>