<svg width="40" height="40" viewBox="0 0 40 40" fill="none" xmlns="http://www.w3.org/2000/svg"><path d="M8.71 17.086c2.415-2.235 4.673-4.624 7.061-6.885.738-.698 1.374-1.39 1.933-2.229.075-.112.221-.472.395-.472.234 0 .582.374.747.483 1.686 1.116 3.445 2.122 5.171 3.173 2.344 1.427 4.748 3.039 6.88 4.744.224.18.35.595.543.692M16.321 31.81c0-.555-.2-9.19.154-9.19 1.242 0 2.461-.1 3.7-.1.12 0 .75-.066.785.056.056.194.006.486.006.68v3.3c0 1.728-.099 3.435-.099 5.155m-12.352-.196c0-.032-.08.536.148.587.256.057.578.006.84.006h11.21c2.683 0 5.356.197 8.038.197.752 0 1.412.06 2.142.193.108.02.293.026.247-.138a2.345 2.345 0 01-.094-.697c0-1.434-.027-2.86-.148-4.288a93.976 93.976 0 01-.346-7.895c0-.574.044-.614-.494-.614-1.199 0-2.4.028-3.596-.06-2.499-.187-5-.451-7.505-.517-2.982-.078-5.972-.017-8.954-.017-.217 0-1.488-.224-1.488.198v13.045z" stroke="#000" stroke-width="2" stroke-linecap="round" stroke-linejoin="round"/></svg>
