<svg width="40" height="40" fill="none" xmlns="http://www.w3.org/2000/svg"><path d="M7 11.031c4.07-2.382 10.623-.014 14.706.894 1.885.419 5.223 2.095 7.211 1.024 1.535-.826 2.458-1.668 3.583-2.918m0 7.375c-6.375.375-13.6.449-20.201.449-1 0-2.187.11-3.1-.297-.767-.34-.949-.777-2.199-1.402m.75 8.875c2.044-1.322 5.714-2.546 8.225-2.6 2.72-.057 5.447 0 8.168 0 1.89 0 3.84.24 5.702.473.716.089 2.053-.07 2.655-.472m0 5.765c-3.25.054-8.001 0-11.398 0-1.022 0-2.143-.121-3.154.054-1.152.2-2.23.75-3.397.97-1.442.273-2.632.432-4.125.432-.556 0-1.926 0-3.426-.872" stroke="#000" stroke-width="2" stroke-linecap="round" stroke-linejoin="round"/></svg>
