<svg width="40" height="40" viewBox="0 0 40 40" fill="none" xmlns="http://www.w3.org/2000/svg"><path d="M23.317 12.224c-1.156.121-2.513 1.912-3.3 2.69-1.245 1.234-2.42 2.547-3.646 3.8-1.214 1.242-2.71 2.487-3.718 3.93-.625.894-1.645 1.484-2.39 2.263-.54.563-.998 1.09-1.512 1.686-1.045 1.215-.694 2.873-.694 4.463 0 .446-.235 1.886.367 1.921.883.052 1.782 0 2.666 0h2.023c.638 0 1.142-.458 1.655-.875 1.658-1.348 11.307-10.602 12.92-12 1.312-1.135 1.856-1.574 2.575-2.54.212-.285-3.69-2.4-4.188-2.69-.57-.331-1.194-1.013-1.655-1.495-.566-.592-1.365-.986-.695-1.687.325-.339.669-.804 1.063-1.046.72-.442 1.073-1.47 1.757-1.879 1.318-.787 2.34-1.184 3.667-.106.976.793 2.367 1.535 2.655 2.893.195.914.269 3.147-.449 3.747-.457.382-.83.77-1.287 1.153-.428.358-.52.895-1.011 1.153" stroke="#000" stroke-width="2" stroke-linecap="round"/><path d="M8.5 27.5c1.138.948 2.567 1.425 3.344 2.648C12.3 30.864 13.606 31.27 14 32" stroke="#000" stroke-width="2" stroke-linecap="round"/></svg>
