<svg width="40" height="40" viewBox="0 0 40 40" fill="none" xmlns="http://www.w3.org/2000/svg"><path d="M26.995 28.61c0-.45.02-.906-.024-1.355-.123-1.232-.508-2.077-1.136-3.137-1.09-1.84-2.336-3.32-4.393-4.135-1.48-.587-3.739-.728-4.943.474-1.228 1.227-1.95 2.566-2.19 4.296-.226 1.624-.087 6.557-.087 4.918 0-.402-.11-.757-.11-1.171 0-1.159-.112-2.35-.112-3.525 0-.963.061-2.033.5-2.91.476-.95 1.691-1.72 2.635-2.132 1.876-.82 3.864-.933 5.522-2.25 1.381-1.094 1.64-3.44.624-4.85-.886-1.228-2.29-2.06-3.727-2.502-1.158-.355-3.005-.515-4.153-.012-1.658.727-1.448 3.144-1.265 4.622.192 1.559 1.893 2.596 3.14 3.242.52.269 1.45.666 2.055.666" stroke="#000" stroke-width="2" stroke-linecap="round"/></svg>
