<svg width="40" height="40" viewBox="0 0 40 40"  fill="none" xmlns="http://www.w3.org/2000/svg"><path d="M15.76 10.327c-.274 0-.651-.063-.896.088-.443.272-.768.812-.949 1.282-.216.561-.21 1.106-.21 1.698 0 .34-.027.696.046 1.03.121.552.487 1.025.846 1.444 1.223 1.422 2.935 2.325 4.787 2.614.695.108 1.493.136 2.16-.117.952-.362 1.644-1.182 2.055-2.088.599-1.317.86-3.185.111-4.496-.679-1.188-2.106-1.859-3.407-2.076-1.123-.187-2.412-.31-3.54-.088-.372.074-.741.21-1.106.317-.21.06-.38.145-.477.34M13 29.652c0-3.23 1.18-6.587 3.628-8.796 1.673-1.51 3.875-1.481 5.702-.216 1.09.754 1.84 1.97 2.47 3.112.63 1.143 1.23 2.272 1.607 3.525.291.972.731 2.104.731 3.13" stroke="#000" stroke-width="2" stroke-linecap="round" stroke-linejoin="round"/></svg>
