<svg fill="none" xmlns="http://www.w3.org/2000/svg" viewBox="0 0 422 511"><path fill-rule="evenodd" clip-rule="evenodd" d="M172.4 1a1538 1538 0 00-119 7c-47 4.8-55.5 8.9-53 25.5 1.2 7.7 1.4 30.3 1.5 126.3a4674.5 4674.5 0 004.4 247.6c1 22.2 7 53.8 10.5 55.6 1.3.6 4.1 3 6.4 5.1 2.3 2.2 6.5 5.2 9.4 6.7 3 1.4 7.7 4.2 10.7 6 8.3 5.4 31.6 13.9 49 18 6.1 1.4 14.4 3.5 18.5 4.6 35.3 9.4 156.5 8.7 192-1.2 5.8-1.6 15.2-3.8 20.9-5 26.2-5 58.2-21 73.6-36.8l5-5 .7-44.8c.4-24.6 1.2-48 1.8-51.8a427 427 0 002-24l2.6-36.5a2563 2563 0 005.4-102.5c.6-16 1.3-31.2 1.6-34 .5-4.2 2.5-90.2 2.8-124 .1-7.2.6-11.8 1.5-13.3C429.4 9 295.1-3.6 172.4.9zm125 6.4c72.8 2.7 128.1 10.8 115 16.7-43 19.7-346 21.1-401 2-22.8-8 54-17 172-20.2 18.3-.4 84.8.4 114 1.5zM19.6 33.8c71 15.7 320.2 14.4 385-2a304 304 0 0110.1-2.5c.4 0 .1 6.3-1.9 42.5a479 479 0 00-.6 36.2c.3 7.9.2 23-.4 33.5-.5 10.7-1.4 32.4-1.9 48.3a3126.6 3126.6 0 01-7.5 133c-2.2 34-2.4 35.4-4.8 35.7-1.3.2-5.6 5.9-12.7 16.8-12.7 19.4-10.3 18.3-17.9 8.8-4-5-6.9-7.8-8.2-7.8-3.4 0-2.2 3.3 4.6 11.8 8 10 8.2 7.4-2.7 24.1l-9.1 14-8.6-7-13.8-11.2c-6.6-5.2-7.5-3 8.6-20.2 13.5-14.4 15.7-17.6 12.7-18.8-2.5-1-32.6 30.7-32.6 34.3 0 1.4 5 6.1 16 15.2 8.8 7.3 16 13.6 16 14 0 1.9-53.2 12.3-68.9 13.4-11.3.9-11.4 1.3 2.1-8.9 21-15.7 33.3-25.7 33.3-27 0-3.8-5.4-1.5-16 7a1483 1483 0 01-33.5 26.1c-1.6 1.2-2.8.6-9.7-4.3-4.3-3.1-9.9-6.8-12.3-8.2l-13.3-7.8-8.8-5.2 11.8-6.8a557.9 557.9 0 0135.5-19.5c1.4 0 .8-4-.7-4.6-1.5-.5-15.3 6.4-27 13.6-23.5 14.5-26 15.5-30 12.7-1.2-.8-6.3-3.6-11.5-6.4l-23-12c-9.2-4.9-14-6.9-15-6.3-2.6 1.6-.2 3.8 10.1 9.3 43.7 23.4 42.1 17.8 11 38.9-13.4 9.1-12 9-19.9 2a528 528 0 00-23.2-18.2c-9.1-6.8-17.1-13-17.9-13.7-1.6-1.6-2.4-1.6-4 0-2 2-1.9 2 19.1 18.1 23.8 18.4 28.8 22.6 26.8 22.6-2.5 0-28.2-4-29-4.4-.8-.5-24.8-3.7-45.5-6-30.5-3.5-69-14.5-76.1-21.8-4.4-4.4-6.4-71-7.4-245C6.5 95 5.8 32.7 5.3 31.4c-.7-2.2-.6-2.3 1.4-1.2 1.2.6 7 2.2 12.9 3.5zm5.3 114.8c-5.8 14-7.3 18-9 25.5-6 25.4-4 65.8 5 100.2l5.3 20.5c5 19.2 7.8 19 11.2-.7l4-23.1c5.2-29.3 1.8-76.7-8.1-115.2-2.3-8.8-6.3-12.2-8.4-7.2zm6 20.7c5.1 27.8 5.9 33.5 7 50 1.5 21.9.8 37.7-2.5 55-1.4 7.3-2.5 14.6-2.5 16.2 0 4.4-1.6 3.4-2.9-1.9a423 423 0 01-13.2-78 152 152 0 017.8-48c3.1-8 3.6-7.5 6.2 6.7zm181.7-5.7c-34.5 41-38 111.1-7.3 151.4 9.2 12.2 12.4 13.3 17.5 6 24.5-35.8 27.7-101.2 7-143.2-11-22.2-10.7-22-17.2-14.2zm10.6 12.6c21.2 41 18.8 112-4.8 141.6-7.7 9.8-27.4-36.8-28.3-67-1.3-45.5 21.6-97 33.1-74.6zm174 5.4a197 197 0 00-7.8 29.2 198.2 198.2 0 00-.9 61c.4 1.7 1.2 8 1.8 14 1 11.3 4.5 16.7 6 9.4 11.6-59.2 12.1-128.3.8-113.6zm2.6 34.7c0 17.8-3.4 54.8-5.3 56.8-1.5 1.5-2.8-19.3-2.3-35.3.6-16.8 1.3-22.1 4.8-38.5l1.4-6.5.6 4.5c.4 2.5.7 11 .8 19zm-294.4-.7c-12.2 18.6-20.7 59-17.6 83.7 2.9 23.5 16 72 19.9 73.5 8.3 3.2 30.2-56.6 30.2-82.4 0-31.3-24.3-87.3-32.5-74.8zm223.4 5c-.6 2.3-2.1 7.6-3.5 11.7-14.7 45.7-10.2 141.2 5.4 113.9 13-23 16.5-50.6 12-97.4-2.1-22.7-10.8-40.2-13.9-28.2zM114 227.4c23.7 39.2 24 81 1.1 126.6-5.5 11-5.4 11.2-10.6-4.4-15.7-47.3-15.5-86.2.7-122.5 3.7-8.3 3.6-8.3 8.8.3zm221 6.6c3.6 11.8 5.9 56.3 3.5 70.6-3 18.6-10.5 40.3-12.6 36.6-7.1-12.6-4.9-77 3.7-105.1 3.2-10.5 2.8-10.3 5.3-2.1zM202.3 347.4c-11.6 7.7-25.2 16.5-30.3 19.6-6.5 3.9-9.2 6.1-9.2 7.4 0 2 4.3 2.8 5.4 1 .3-.5 4.3-3 8.8-5.6 4.6-2.6 16.3-10.1 26.2-16.7a501 501 0 0119-12.4c1.6-.6 33.2 20.9 41.7 28.3 6.4 5.6 9.1 6.3 9.6 2.8.4-2.6-7-8.5-29.1-23.4-9.2-6.2-17.1-12-17.7-13.1-1.6-3-2.3-2.7-24.4 12zm-183.9 8.3c-.3.8 5.3 9.3 13 19.7l13.4 18.3-5.7 5a169 169 0 01-8.7 7.4c-3.6 2.6-5 4.8-4.1 6.3 1.3 2 3.8.4 16.9-10.5 2.6-2.2 5-3.5 5.5-3 .8 1 15.6 21.1 21.4 29.2 3 4.2 7.6 5.8 9.2 3.2.9-1.4 13.7-10.8 23.1-16.8 11.2-7.1 11.6-7.8 7.7-11L96 390.3c-10.7-10-13.9-12-14.8-9.2-.2.7 5.1 6.6 11.9 13.2 6.8 6.6 12 12.2 11.7 12.5l-8.4 5.9a875 875 0 00-14.2 9.7c-4 2.7-6.6 4-7 3.3L63.5 410c-9.4-12.7-10.7-15-9.5-16.1.8-.8 6.6-5.6 12.9-10.7 11.4-9.2 13.5-12 10.4-13.1-1.7-.7-3.7.7-18.7 13-4.9 4-9 7.3-9.2 7.3-.2 0-6.4-8-13.7-18C23 355.2 20 352.1 18.5 355.7zm379.8 14.9c-.3 3.4-1 16.3-1.3 28.5l-.6 22.3-19.2-24.4 10.6-16.3c12.3-19 11.3-18 10.5-10.1zm-15.5 42c9.3 12 9.3 11.9 4.8 13.4-3.2 1.1-31.8 5.6-32.4 5-.4-.4 18.1-28.6 18.9-28.6.3 0 4.3 4.6 8.7 10.2zm-367.2 9.7c9 5 36 14 49 16 9.4 1.6 9.6 1.3-7.2 10L43 455.8l-10-10.5c-10.7-11.2-19.5-14-10.2-3.3 19 22 17.2 21.4 37.5 10.8a204 204 0 0117.3-8.5c.6 0 9.1 8.8 18.9 19.5 9.8 10.8 18 19.5 18.5 19.5a687.2 687.2 0 0129.1-15.1c12.2-6 15.8-8.3 15.8-9.8 0-3.8-2.3-3-22.7 7.4a483 483 0 01-21.4 10.5c-.8 0-32.3-34-31.8-34.4.6-.5 41.9 4.3 46.4 5.4 22.6 5.5 75 8.2 117.9 6.2 23-1.1 24-1.1 26 .7 2.5 2.3 41 28 43.2 28.8 1 .4 7-5 18.4-16.2 12.7-12.6 17.2-16.5 18.2-15.8 7.3 5.7 27.8 12.3 27.8 8.9 0-.7 3.4-4.4 7.6-8.2l7.7-6.8-.6 4.8c-1.4 13-40.8 35.5-73.5 42.2-6.2 1.3-15.2 3.4-20 4.8-36.5 10.4-161.6 10.5-196.2.2-4.3-1.3-11.4-3.1-15.9-4-4.4-1-13.6-3.7-20.4-6.2l-15-5.4a55 55 0 01-8.5-4.3c-3.2-1.9-8.4-4.8-11.7-6.5-13-6.5-17.3-13.2-20-31.2-3.1-20.3-3.2-18.9.2-17zm213.8 5c20.4 12.1 30.6 19.3 29.3 20.6-.3.2-19 .4-41.4.2l-41-.3 12-8a2450 2450 0 0019.5-13.3c9.2-6.4 9.4-6.4 21.6.8zm167.5 8c0 7.4-.2 7.8-2 7.3-1.5-.4-4 1.3-9.4 6.1-9 8-7.3 8-22.2.7l-12.3-6-16.2 16.5c-9 9-16.8 16.4-17.3 16.4-1.2 0-37.8-24.1-37.4-24.6a514.6 514.6 0 0063.8-12c7.5-1.8 19.8-4.2 27.3-5.3 15.6-2.3 20.4-3.4 23.2-5.5 1-.8 2-1.5 2.2-1.5.1 0 .3 3.5.3 7.9zM174.5 457c-2.1 2.1 1 5 19.8 17.8a224.9 224.9 0 0121 15.2c.9 2.4 2.4 1.5 22.4-12.8 20-14.5 21.4-15.6 20.8-17.4-.9-2.8-5.1-.6-21 10.8l-18.4 13.1c-.7.5-9-4.6-21.7-13.3-20.2-13.9-21.6-14.7-22.9-13.4z" fill="#000"/></svg>
